<svg xmlns="http://www.w3.org/2000/svg" viewBox="0 0 17 16" fill="#44533c">
    <path d="M3.95703 15.75H0.6875V5.23828H3.95703V15.75ZM2.33984 3.79688C1.82422 3.79688 1.37891 3.60938 1.00391 3.23438C0.628906 2.85938 0.441406 2.41406 0.441406 1.89844C0.441406 1.38281 0.628906 0.9375 1.00391 0.5625C1.37891 0.1875 1.82422 0 2.33984 0C2.85547 0 3.30078 0.1875 3.67578 0.5625C4.05078 0.9375 4.23828 1.38281 4.23828 1.89844C4.23828 2.22656 4.14453 2.54297 3.95703 2.84766C3.79297 3.12891 3.55859 3.36328 3.25391 3.55078C2.97266 3.71484 2.66797 3.79688 2.33984 3.79688ZM16.1914 15.75H12.9219V10.6172C12.9219 10.2188 12.9102 9.90234 12.8867 9.66797C12.8633 9.41016 12.8047 9.12891 12.7109 8.82422C12.6172 8.49609 12.4414 8.25 12.1836 8.08594C11.9492 7.92188 11.6328 7.83984 11.2344 7.83984C10.4609 7.83984 9.93359 8.08594 9.65234 8.57812C9.39453 9.07031 9.26562 9.72656 9.26562 10.5469V15.75H5.99609V5.23828H9.16016V6.67969H9.19531C9.42969 6.21094 9.81641 5.8125 10.3555 5.48438C10.8945 5.13281 11.5391 4.95703 12.2891 4.95703C13.0859 4.95703 13.7422 5.08594 14.2578 5.34375C14.7969 5.57812 15.1953 5.94141 15.4531 6.43359C15.7344 6.90234 15.9219 7.41797 16.0156 7.98047C16.1328 8.54297 16.1914 9.21094 16.1914 9.98438V15.75Z" fill="#44533c"/>
    </svg>