<svg xmlns="http://www.w3.org/2000/svg" width="26" height="26" viewBox="0 0 26 26">
    <path fill-rule="evenodd" clip-rule="evenodd" d="M13 2.70825C10.6068 2.70825 8.66667 4.64835 8.66667 7.04159C8.66667 9.43482 10.6068 11.3749 13 11.3749C15.3932 11.3749 17.3333 9.43482 17.3333 7.04159C17.3333 4.64835 15.3932 2.70825 13 2.70825ZM9.75 7.04159C9.75 5.24666 11.2051 3.79159 13 3.79159C14.7949 3.79159 16.25 5.24666 16.25 7.04159C16.25 8.83651 14.7949 10.2916 13 10.2916C11.2051 10.2916 9.75 8.83651 9.75 7.04159Z" fill="currentColor"/>
    <path fill-rule="evenodd" clip-rule="evenodd" d="M13 14.0833C8.51269 14.0833 4.875 17.7209 4.875 22.2083V23.2916H21.125V22.2083C21.125 17.7209 17.4873 14.0833 13 14.0833ZM5.95833 22.2083C5.95833 18.3192 9.111 15.1666 13 15.1666C16.889 15.1666 20.0417 18.3192 20.0417 22.2083H5.95833Z" fill="currentColor"/>
    </svg>