<svg xmlns="http://www.w3.org/2000/svg" width="28" height="24" viewBox="0 0 28 24">
  <g clip-path="url(#clip0_840_591)">
    <path d="M26.4 7.53343H23L18.24 0.164647C18.12 -0.0411848 17.88 -0.0823512 17.68 0.041148C17.48 0.164647 17.44 0.411645 17.56 0.617477L22.04 7.49226H5.96L10.44 0.658644C10.56 0.452812 10.52 0.205814 10.32 0.0823144C10.12 -0.0411848 9.88 -1.84123e-05 9.76 0.205814L5 7.53343H1.6C1.16 7.53343 0.72 7.65693 0.44 7.98626C0.12 8.27443 0 8.72726 0 9.18009V10.0034C0 10.4562 0.12 10.9091 0.44 11.1972C0.72 11.5266 1.16 11.6501 1.6 11.6501H1.72L6.6 23.753C6.68 23.9177 6.8 24 6.96 24H21C21.16 24 21.32 23.9177 21.36 23.753L26.24 11.6501H26.4C26.84 11.6501 27.28 11.5266 27.56 11.1972C27.84 10.9091 28 10.4562 28 10.0034V9.18009C28 8.72726 27.88 8.27443 27.56 7.98626C27.28 7.65693 26.84 7.53343 26.4 7.53343ZM14.4 17.825H18.24L17.2 23.1767H14.4V17.825ZM13.6 23.1767H10.8L9.76 17.825H13.6V23.1767ZM14.4 17.0017V11.6501H19.4L18.36 17.0017H14.4ZM13.6 17.0017H9.64L8.6 11.6501H13.6V17.0017ZM7.76 11.6501L8.8 17.0017H4.76L2.6 11.6501H7.76V11.6501ZM5.08 17.825H8.96L10 23.1767H7.24L5.08 17.825ZM20.76 23.1767H18L19.04 17.825H22.92L20.76 23.1767ZM23.24 17.0017H19.2L20.24 11.6501H25.4L23.24 17.0017ZM27.2 10.0034C27.2 10.3327 27.12 10.4974 27 10.6209C26.88 10.7444 26.72 10.8267 26.4 10.8267H1.6C1.28 10.8267 1.12 10.7444 1 10.6209C0.88 10.4974 0.8 10.3327 0.8 10.0034V9.18009C0.8 8.85075 0.88 8.68609 1 8.56259C1.12 8.43909 1.28 8.35676 1.6 8.35676H26.4C26.72 8.35676 26.88 8.43909 27 8.56259C27.12 8.68609 27.2 8.85075 27.2 9.18009V10.0034Z" fill="currentColor"/>
  </g>
  <defs>
  <clipPath id="clip0_840_591">
  <rect width="28" height="24" fill="currentColor"/>
  </clipPath>
  </defs>
  </svg>